<?xml version="1.0" encoding="iso-8859-1"?>
<!-- Generator: Adobe Illustrator 16.0.0, SVG Export Plug-In . SVG Version: 6.00 Build 0)  -->
<!DOCTYPE svg PUBLIC "-//W3C//DTD SVG 1.1//EN" "http://www.w3.org/Graphics/SVG/1.1/DTD/svg11.dtd">
<svg version="1.1" id="Capa_1" xmlns="http://www.w3.org/2000/svg" xmlns:xlink="http://www.w3.org/1999/xlink" x="0px" y="0px"
	 width="45.744px" height="45.744px" viewBox="0 0 45.744 45.744" style="enable-background:new 0 0 45.744 45.744;"
	 xml:space="preserve">
<g>
	<g>
		<path d="M31.408,5.373V4.338c0-0.384-0.104-0.76-0.303-1.089L29.91,1.254c-0.139-0.229-0.385-0.369-0.652-0.369
			s-0.515,0.141-0.652,0.369L27.416,3.25c-0.197,0.329-0.292,0.705-0.292,1.089v1.033c0.663-0.125,1.408-0.189,2.142-0.189
			S30.701,5.248,31.408,5.373z"/>
		<path d="M39.258,10.414l0.737-0.736c0.271-0.271,0.464-0.611,0.557-0.984l0.564-2.256c0.065-0.26-0.011-0.534-0.2-0.723
			c-0.189-0.189-0.463-0.265-0.723-0.2L37.936,6.08c-0.373,0.093-0.711,0.286-0.983,0.557l-0.735,0.735
			C37.4,8.199,38.432,9.229,39.258,10.414z"/>
		<path d="M45.375,16.723l-1.996-1.2c-0.329-0.198-0.706-0.305-1.089-0.305h-1.034c0.125,0.706,0.189,1.43,0.189,2.164
			c0,0.733-0.064,1.458-0.189,2.165h1.034c0.383,0,0.76-0.115,1.089-0.312l1.996-1.202c0.229-0.138,0.369-0.388,0.369-0.655
			C45.744,17.111,45.604,16.859,45.375,16.723z"/>
		<path d="M17.961,8.695c0.093,0.372,0.286,0.712,0.557,0.983l0.735,0.735c0.826-1.184,1.857-2.214,3.041-3.041l-0.735-0.735
			c-0.271-0.271-0.611-0.464-0.983-0.557l-2.257-0.564c-0.259-0.065-0.534,0.011-0.722,0.2c-0.189,0.189-0.265,0.463-0.2,0.723
			L17.961,8.695z"/>
		<path d="M40.719,26.727l-0.167-0.672c-0.093-0.372-0.286-0.712-0.557-0.983l-0.736-0.736c-0.265,0.381-0.551,0.744-0.856,1.092
			C39.23,25.769,40.008,26.206,40.719,26.727z"/>
		<path d="M36.26,6.169c0.148-0.354,0.197-0.742,0.141-1.122l-0.336-2.301c-0.039-0.264-0.213-0.489-0.461-0.592
			c-0.246-0.103-0.528-0.069-0.744,0.09l-1.873,1.381c-0.309,0.228-0.549,0.535-0.696,0.889l-0.397,0.957
			c1.434,0.316,2.771,0.887,3.967,1.66L36.26,6.169z"/>
		<path d="M39.531,10.82c0.768,1.2,1.33,2.542,1.641,3.977l0.958-0.394c0.354-0.146,0.663-0.386,0.892-0.693l1.39-1.866
			c0.159-0.215,0.194-0.497,0.093-0.744c-0.102-0.248-0.326-0.423-0.59-0.463l-2.299-0.348c-0.379-0.057-0.768-0.01-1.122,0.136
			L39.531,10.82z"/>
		<path d="M14.427,12.182c0.149-0.005,0.3-0.008,0.451-0.008c1.089,0,2.155,0.132,3.18,0.382c0.269-0.623,0.588-1.219,0.953-1.782
			l-0.958-0.4c-0.354-0.148-0.742-0.197-1.121-0.141l-2.303,0.337c-0.265,0.039-0.489,0.213-0.592,0.46s-0.068,0.529,0.09,0.744
			L14.427,12.182z"/>
		<path d="M43.006,21.103c-0.229-0.309-0.535-0.549-0.889-0.697l-0.957-0.399c-0.316,1.434-0.887,2.773-1.659,3.969l0.96,0.4
			c0.354,0.147,0.742,0.197,1.121,0.141l2.303-0.336c0.266-0.039,0.49-0.213,0.592-0.46c0.104-0.247,0.069-0.529-0.09-0.745
			L43.006,21.103z"/>
		<path d="M22.702,7.099c1.199-0.768,2.541-1.331,3.976-1.641l-0.394-0.956c-0.146-0.355-0.386-0.664-0.693-0.892l-1.866-1.389
			c-0.214-0.16-0.497-0.195-0.744-0.094c-0.248,0.102-0.423,0.326-0.463,0.59L22.17,5.016c-0.057,0.379-0.01,0.767,0.136,1.122
			L22.702,7.099z"/>
		<path d="M29.255,7.172c-4.136,0-7.697,2.462-9.298,6c2.659,1.09,4.922,3.022,6.416,5.527c0.449-0.061,0.902-0.092,1.359-0.092
			c3.94,0,7.404,2.24,9.084,5.615c1.641-1.811,2.64-4.213,2.64-6.848C39.457,11.741,34.891,7.172,29.255,7.172z"/>
		<path d="M34.812,27.589c-0.574-3.402-3.511-5.995-7.076-5.995c-1.073,0-2.079,0.24-2.994,0.661
			c-1.388-4.123-5.273-7.096-9.864-7.096c-5.754,0-10.416,4.665-10.416,10.418c0,0.973,0.058,1.91,0.307,2.803
			C2.001,29.714,0,32.54,0,35.819v0.352c0,4.564,3.875,8.688,8.439,8.688h25.679c4.565,0,8.2-4.123,8.2-8.688v-0.352
			C42.318,31.499,39.037,27.958,34.812,27.589z"/>
	</g>
</g>
<g>
</g>
<g>
</g>
<g>
</g>
<g>
</g>
<g>
</g>
<g>
</g>
<g>
</g>
<g>
</g>
<g>
</g>
<g>
</g>
<g>
</g>
<g>
</g>
<g>
</g>
<g>
</g>
<g>
</g>
</svg>
