<?xml version="1.0" encoding="iso-8859-1"?>
<!-- Generator: Adobe Illustrator 18.1.1, SVG Export Plug-In . SVG Version: 6.00 Build 0)  -->
<svg version="1.1" id="Capa_1" xmlns="http://www.w3.org/2000/svg" xmlns:xlink="http://www.w3.org/1999/xlink" x="0px" y="0px"
	 viewBox="0 0 33.349 33.349" style="enable-background:new 0 0 33.349 33.349;" xml:space="preserve">
<g>
	<path d="M28.762,15.194c0.166-0.639,0.258-1.309,0.258-1.998c0-4.339-3.526-7.859-7.868-7.859
		c-5.023,0.008-5.693,3.828-5.693,3.828S13.348,6.56,9.627,7.009c-3.35,0.668-5.539,3.682-5.539,6.756
		c0,0.529,0.076,1.033,0.211,1.527C1.789,16.208,0,18.622,0,21.45c0,3.623,2.936,6.562,6.562,6.562h20.221
		c3.631,0,6.566-2.939,6.566-6.562C33.35,18.511,31.42,16.03,28.762,15.194z"/>
	<g>
	</g>
	<g>
	</g>
	<g>
	</g>
	<g>
	</g>
	<g>
	</g>
	<g>
	</g>
	<g>
	</g>
	<g>
	</g>
	<g>
	</g>
	<g>
	</g>
	<g>
	</g>
	<g>
	</g>
	<g>
	</g>
	<g>
	</g>
	<g>
	</g>
</g>
<g>
</g>
<g>
</g>
<g>
</g>
<g>
</g>
<g>
</g>
<g>
</g>
<g>
</g>
<g>
</g>
<g>
</g>
<g>
</g>
<g>
</g>
<g>
</g>
<g>
</g>
<g>
</g>
<g>
</g>
</svg>
