<?xml version="1.0" encoding="iso-8859-1"?>
<!-- Generator: Adobe Illustrator 16.0.0, SVG Export Plug-In . SVG Version: 6.00 Build 0)  -->
<!DOCTYPE svg PUBLIC "-//W3C//DTD SVG 1.1//EN" "http://www.w3.org/Graphics/SVG/1.1/DTD/svg11.dtd">
<svg version="1.1" id="Capa_1" xmlns="http://www.w3.org/2000/svg" xmlns:xlink="http://www.w3.org/1999/xlink" x="0px" y="0px"
	 width="329.742px" height="329.741px" viewBox="0 0 329.742 329.741" style="enable-background:new 0 0 329.742 329.741;"
	 xml:space="preserve">
<g>
	<g>
		<path d="M251.866,68.625c-11.878-19.812-33.303-32.018-56.47-32.018c-5.308,0-10.646,0.664-15.912,1.979
			C167.84,17.639,146.037,4.726,121.988,4.726c-35.404,0-64.359,28.075-65.762,63.455C23.986,72.874,0,100.402,0,133.312
			c0,36.293,29.532,65.831,65.831,65.831h198.08c36.293,0,65.831-29.537,65.831-65.831
			C329.753,93.056,293.118,60.915,251.866,68.625z"/>
		<polygon points="168.897,255.071 179.195,255.071 179.195,249.859 174.116,249.859 177.562,246.406 173.887,242.713 
			169.846,246.755 169.846,240.504 164.625,240.504 164.625,251.973 148.061,268.54 140.797,268.54 148.706,260.638 
			145.028,256.938 133.43,268.54 129.581,268.54 129.581,265.945 141.479,254.045 137.798,250.357 129.581,258.572 129.581,251.318 
			146.454,234.445 157.314,234.445 157.314,229.232 151.675,229.232 155.713,225.186 152.026,221.498 147.956,225.576 
			147.956,219.877 142.74,219.877 142.74,230.794 129.581,243.944 129.581,217.59 124.369,217.59 124.369,243.944 110.593,230.169 
			110.593,219.871 105.381,219.871 105.381,224.945 101.925,221.498 98.236,225.186 102.28,229.232 96.026,229.232 96.026,234.445 
			107.501,234.445 124.369,251.318 124.369,258.578 116.154,250.357 112.47,254.045 124.369,265.945 124.369,268.54 121.465,268.54 
			109.561,256.633 105.883,260.325 114.1,268.54 106.843,268.54 89.964,251.666 89.964,240.822 84.758,240.822 84.758,246.454 
			80.705,242.407 77.027,246.1 81.098,250.172 75.396,250.172 75.396,255.39 86.313,255.39 99.463,268.54 73.112,268.54 
			73.112,273.752 99.463,273.752 85.691,287.527 75.39,287.527 75.39,292.745 80.477,292.745 77.027,296.198 80.705,299.891 
			84.758,295.838 84.758,302.095 89.964,302.095 89.964,290.625 106.843,273.752 114.1,273.752 105.883,281.967 109.561,285.653 
			121.471,273.752 124.369,273.752 124.369,277.295 112.167,289.496 115.851,293.184 124.369,284.656 124.369,291.923 
			107.189,309.103 96.341,309.103 96.341,314.32 101.979,314.32 97.932,318.361 101.623,322.043 105.694,317.972 105.694,323.676 
			110.909,323.676 110.909,312.76 124.369,299.297 124.369,325.016 129.581,325.016 129.581,299.903 143.055,313.372 
			143.055,323.676 148.268,323.676 148.268,318.59 151.723,322.043 155.413,318.361 151.366,314.32 157.62,314.32 157.62,309.103 
			146.154,309.103 129.581,292.535 129.581,285.275 137.495,293.184 141.185,289.496 129.581,277.901 129.581,273.752 
			132.817,273.752 145.028,285.966 148.706,282.279 140.182,273.752 147.451,273.752 164.625,290.938 164.625,301.795 
			169.846,301.795 169.846,296.15 173.887,300.191 177.568,296.504 173.491,292.434 179.195,292.434 179.195,287.215 
			168.285,287.215 154.816,273.752 180.541,273.752 180.541,268.54 155.425,268.54 		"/>
		<polygon points="266.667,232.77 271.609,232.77 271.609,230.266 269.171,230.266 270.823,228.602 269.057,226.83 267.118,228.776 
			267.118,225.768 264.614,225.768 264.614,231.28 256.657,239.236 253.163,239.236 256.969,235.441 255.198,233.664 
			249.631,239.236 247.776,239.236 247.776,237.987 253.499,232.277 251.721,230.5 247.776,234.445 247.776,230.962 
			255.888,222.855 261.094,222.855 261.094,220.357 258.386,220.357 260.326,218.412 258.561,216.641 256.609,218.598 
			256.609,215.859 254.099,215.859 254.099,221.102 247.776,227.419 247.776,214.761 245.272,214.761 245.272,227.419 
			238.655,220.802 238.655,215.859 236.145,215.859 236.145,218.292 234.488,216.641 232.722,218.412 234.667,220.357 
			231.653,220.357 231.653,222.855 237.166,222.855 245.272,230.962 245.272,234.445 241.333,230.5 239.561,232.277 
			245.272,237.987 245.272,239.236 243.879,239.236 238.163,233.514 236.397,235.291 240.336,239.236 236.853,239.236 
			228.747,231.13 228.747,225.918 226.243,225.918 226.243,228.632 224.303,226.687 222.538,228.452 224.483,230.416 
			221.757,230.416 221.757,232.907 226.994,232.907 233.31,239.236 220.646,239.236 220.646,241.74 233.31,241.74 226.693,248.357 
			221.746,248.357 221.746,250.861 224.195,250.861 222.538,252.525 224.303,254.297 226.243,252.352 226.243,255.359 
			228.747,255.359 228.747,249.847 236.853,241.74 240.336,241.74 236.397,245.686 238.163,247.463 243.885,241.74 245.272,241.74 
			245.272,243.439 239.412,249.301 241.189,251.066 245.272,246.982 245.272,250.472 237.021,258.729 231.809,258.729 
			231.809,261.227 234.511,261.227 232.578,263.172 234.343,264.938 236.301,262.979 236.301,265.718 238.805,265.718 
			238.805,260.481 245.272,254.015 245.272,266.366 247.776,266.366 247.776,254.303 254.243,260.77 254.243,265.718 
			256.753,265.718 256.753,263.279 258.411,264.938 260.188,263.172 258.249,261.227 261.245,261.227 261.245,258.729 
			255.739,258.729 247.776,250.766 247.776,247.271 251.577,251.066 253.354,249.301 247.776,243.734 247.776,241.74 
			249.325,241.74 255.198,247.607 256.969,245.83 252.874,241.74 256.369,241.74 264.614,249.997 264.614,255.209 267.118,255.209 
			267.118,252.501 269.057,254.44 270.823,252.676 268.871,250.712 271.609,250.712 271.609,248.22 266.373,248.22 259.9,241.74 
			272.257,241.74 272.257,239.236 260.188,239.236 		"/>
	</g>
</g>
<g>
</g>
<g>
</g>
<g>
</g>
<g>
</g>
<g>
</g>
<g>
</g>
<g>
</g>
<g>
</g>
<g>
</g>
<g>
</g>
<g>
</g>
<g>
</g>
<g>
</g>
<g>
</g>
<g>
</g>
</svg>
